<svg width="50" height="29" viewBox="0 0 50 29" fill="none" xmlns="http://www.w3.org/2000/svg">
<path d="M10.3056 8.88346C10.7867 8.68657 11.2999 8.58156 11.8323 8.58156C14.1628 8.58156 16.1086 10.6134 16.5533 13.3147L19.8567 12.4878C19.0998 7.89904 15.7942 4.44434 11.8323 4.44434C10.9236 4.44434 10.0533 4.62548 9.23657 4.96149L10.3056 8.88346Z" fill="#FFCB05"/>
<path d="M6.40774 22.025L8.64211 18.9246C7.64573 17.8405 7.01711 16.2575 7.01711 14.4934C7.01711 12.7319 7.64573 11.149 8.64211 10.0674L6.40774 6.96448C4.71434 8.80732 3.64526 11.4981 3.64526 14.4934C3.64526 17.4913 4.71434 20.1821 6.40774 22.025Z" fill="#00A4E0"/>
<path d="M16.5533 15.6799C16.1064 18.3786 14.1628 20.4078 11.8344 20.4078C11.2999 20.4078 10.7846 20.3028 10.3056 20.1033L9.23657 24.0305C10.0533 24.3639 10.9257 24.5452 11.8344 24.5452C15.7921 24.5452 19.0955 21.0956 19.8567 16.5121L16.5533 15.6799Z" fill="#EF4123"/>
<path d="M22.7451 19.0533C22.636 18.8381 22.4906 18.4942 22.4009 18.2395C21.877 16.7484 21.8535 15.2048 22.294 13.7243C22.7793 12.0993 23.7072 10.8576 24.9068 10.2223C26.4141 9.4269 28.0797 9.58177 29.5251 10.6345C30.4425 11.2802 31.0925 12.2778 31.5862 13.6901C31.6482 13.8713 31.7039 14.0629 31.7596 14.2283L22.7451 19.0533ZM25.7556 12.6191C24.6844 13.1835 24.1327 14.4173 24.2482 15.8611L28.781 13.4644C28.0006 12.3408 26.9872 11.968 25.7556 12.6191ZM29.3454 17.8326C29.3433 17.8326 29.3433 17.8352 29.3433 17.8352L29.2493 17.7565C28.9778 18.2946 28.5566 18.733 28.0243 19.0166C27.0107 19.5573 26.072 19.4182 25.3964 18.691L25.3344 18.8065C25.3344 18.8065 25.3344 18.8039 25.3322 18.8039L24.1819 20.9172C24.4684 21.1613 24.7742 21.3661 25.0949 21.5315C26.365 22.1799 27.665 22.1483 28.9457 21.4658C29.8715 20.9723 30.5984 20.2215 31.0946 19.2686L29.3454 17.8326ZM34.909 7.11414V18.859L36.3971 19.5993L35.5525 22.0197L33.9104 21.1797C33.5427 20.9828 33.2903 20.6835 33.1022 20.3449C32.9204 20.001 32.7857 19.5258 32.7857 18.8905V7.11414H34.909ZM38.7618 15.869C38.7618 14.8688 39.1232 13.971 39.6919 13.362L38.1653 11.2724C37.1305 12.3959 36.4783 14.0367 36.4783 15.8638C36.4762 17.6935 37.1283 19.3368 38.1609 20.4604L39.6857 18.3708C39.1188 17.7591 38.7618 16.8666 38.7618 15.869ZM41.4732 19.2003C41.1737 19.2003 40.8829 19.1373 40.6134 19.027L39.8843 21.6863C40.3827 21.8911 40.915 22.004 41.471 22.004C43.887 22.0066 45.9033 19.9012 46.3715 17.1054L44.1308 16.5437C43.8764 18.0636 42.7838 19.2029 41.4732 19.2003ZM41.4794 9.73403C40.9256 9.73403 40.3933 9.84428 39.8952 10.0464L40.6177 12.7083C40.8892 12.5981 41.1781 12.5377 41.4772 12.5377C42.79 12.5403 43.8849 13.6849 44.1329 15.2075L46.3737 14.6509C45.9139 11.8499 43.8976 9.73666 41.4794 9.73403Z" fill="white"/>
</svg>
