<svg width="50" height="38" viewBox="0 0 50 38" fill="none" xmlns="http://www.w3.org/2000/svg">
<path d="M12.789 35.8111H7.34497V26.0273H12.7891L12.789 35.8111Z" fill="#EEEEEE"/>
<path d="M20.1329 30.919C20.1329 34.3555 17.3475 37.1412 13.9115 37.1412C12.5164 37.1433 11.1615 36.6746 10.0659 35.8109C11.5133 34.6716 12.4426 32.9037 12.4426 30.919C12.4426 28.9343 11.5133 27.1665 10.0659 26.0271C11.1615 25.1635 12.5163 24.6948 13.9114 24.6968C17.3474 24.6968 20.1328 27.4825 20.1328 30.919" fill="white"/>
<path d="M7.69009 30.919C7.69009 28.9344 8.61935 27.1665 10.0664 26.0272C8.97105 25.1635 7.6163 24.6947 6.22143 24.6968C2.78534 24.6968 0 27.4825 0 30.919C0 34.3555 2.78534 37.1412 6.22143 37.1412C7.61633 37.1433 8.97112 36.6746 10.0665 35.8109C8.61955 34.6718 7.69009 32.9037 7.69009 30.919Z" fill="#9E9E9E"/>
<g clip-path="url(#clip0_46_601)">
<path d="M48.8379 35.5959V35.6887H48.9301C48.9475 35.6889 48.9649 35.6849 48.9799 35.6768C48.9857 35.6729 48.9907 35.6675 48.9938 35.6613C48.9973 35.6551 48.9988 35.6483 48.9984 35.6414C48.9988 35.6346 48.9973 35.6279 48.9938 35.6218C48.9907 35.6158 48.9857 35.6106 48.9799 35.6068C48.9649 35.5984 48.9475 35.5943 48.9301 35.595H48.8379V35.5959ZM48.9313 35.5303C48.971 35.528 49.01 35.5387 49.0424 35.5605C49.0552 35.5703 49.0656 35.5829 49.0721 35.5972C49.0791 35.6114 49.0822 35.627 49.0814 35.6425C49.0818 35.656 49.0795 35.6693 49.0741 35.6818C49.0687 35.6942 49.0606 35.7054 49.0501 35.7147C49.0251 35.7348 48.9942 35.747 48.9614 35.7492L49.0853 35.8814H48.9899L48.8757 35.7501H48.8387V35.8814H48.7588V35.5305H48.9324L48.9313 35.5303ZM48.9066 36.0025C48.9483 36.0028 48.9899 35.9949 49.0281 35.9793C49.0652 35.9644 49.0988 35.943 49.1273 35.9164C49.1559 35.8898 49.1786 35.8583 49.1945 35.8237C49.2273 35.7501 49.2273 35.6676 49.1945 35.5941C49.1786 35.5595 49.1559 35.5281 49.1273 35.5013C49.0988 35.4747 49.0652 35.4534 49.0281 35.4384C48.9896 35.4236 48.9483 35.4162 48.9066 35.4166C48.8641 35.4163 48.8217 35.4237 48.7823 35.4384C48.7445 35.4531 48.7102 35.4744 48.6809 35.5013C48.6373 35.5434 48.6075 35.5966 48.5956 35.6543C48.584 35.7121 48.5906 35.7718 48.6149 35.826C48.6299 35.8608 48.6523 35.8923 48.6809 35.9187C48.7102 35.9456 48.7445 35.967 48.7823 35.9816C48.8217 35.9972 48.8638 36.0051 48.9066 36.0048M48.9066 35.3322C49.0154 35.3321 49.12 35.3721 49.1979 35.4436C49.2354 35.4779 49.2651 35.5188 49.2855 35.5639C49.3067 35.6103 49.3175 35.6602 49.3175 35.7106C49.3175 35.761 49.3067 35.8109 49.2855 35.8573C49.2647 35.9022 49.235 35.943 49.1979 35.9776C49.1597 36.0118 49.1153 36.0393 49.0671 36.0588C49.0162 36.079 48.9618 36.0893 48.9066 36.089C48.8506 36.0893 48.7951 36.0791 48.7438 36.0588C48.6947 36.0397 48.65 36.0122 48.6122 35.9776C48.5751 35.9417 48.5458 35.8996 48.5257 35.8534C48.5045 35.807 48.4933 35.7571 48.4933 35.7067C48.4933 35.6562 48.5045 35.6063 48.5257 35.56C48.5462 35.5148 48.5759 35.4739 48.6133 35.4396C48.6508 35.4045 48.6955 35.3769 48.7449 35.3584C48.7966 35.3382 48.8518 35.3279 48.9077 35.3283M10.9379 33.9772C10.9379 33.3081 11.4066 32.7585 12.1725 32.7585C12.9046 32.7585 13.3985 33.2845 13.3985 33.9772C13.3985 34.6699 12.9046 35.1959 12.1725 35.1959C11.4066 35.1959 10.9379 34.6463 10.9379 33.9772ZM14.2329 33.9772V32.0732H13.3479V32.537C13.0672 32.1943 12.6415 31.9793 12.0625 31.9793C10.9218 31.9793 10.0267 32.816 10.0267 33.9781C10.0267 35.1402 10.9213 35.977 12.0625 35.977C12.6412 35.977 13.0672 35.7617 13.3479 35.4192V35.8814H14.2319V33.9772H14.2329ZM44.1356 33.9772C44.1356 33.3081 44.6041 32.7585 45.3704 32.7585C46.1032 32.7585 46.5964 33.2845 46.5964 33.9772C46.5964 34.6699 46.1032 35.1959 45.3704 35.1959C44.6045 35.1959 44.1356 34.6463 44.1356 33.9772ZM47.4314 33.9772V30.5449H46.5458V32.537C46.2653 32.1943 45.8393 31.9793 45.2605 31.9793C44.1198 31.9793 43.2246 32.816 43.2246 33.9781C43.2246 35.1402 44.119 35.977 45.2605 35.977C45.8393 35.977 46.2653 35.7617 46.5458 35.4192V35.8814H47.4314V33.9772ZM25.2168 32.7193C25.7871 32.7193 26.1533 33.0537 26.2468 33.6425H24.1352C24.2296 33.0929 24.5865 32.7193 25.2171 32.7193M25.2347 31.9772C24.0419 31.9772 23.2075 32.7889 23.2075 33.976C23.2075 35.1864 24.0754 35.9749 25.2939 35.9749C25.9069 35.9749 26.4683 35.8318 26.9622 35.4415L26.5285 34.8281C26.1873 35.0832 25.7529 35.2263 25.3445 35.2263C24.7742 35.2263 24.2549 34.9793 24.1272 34.294H27.1492C27.1579 34.191 27.1668 34.0871 27.1668 33.9758C27.1579 32.7891 26.3733 31.977 25.2342 31.977M35.919 33.9758C35.919 33.3067 36.3876 32.7571 37.1536 32.7571C37.8856 32.7571 38.3796 33.2831 38.3796 33.9758C38.3796 34.6685 37.8856 35.1945 37.1536 35.1945C36.3876 35.1945 35.9187 34.6448 35.9187 33.9758M39.2138 33.9758V32.0732H38.3292V32.537C38.0475 32.1943 37.6228 31.9793 37.0437 31.9793C35.9031 31.9793 35.008 32.816 35.008 33.9781C35.008 35.1402 35.9026 35.977 37.0437 35.977C37.6228 35.977 38.0475 35.7617 38.3292 35.4192V35.8814H39.2138V33.9772V33.9758ZM30.9213 33.9758C30.9213 35.1305 31.7807 35.9746 33.0924 35.9746C33.7054 35.9746 34.1138 35.8471 34.5554 35.5208L34.1304 34.8517C33.7981 35.0751 33.4492 35.1945 33.0642 35.1945C32.3577 35.1864 31.8382 34.7087 31.8382 33.9758C31.8382 33.243 32.3577 32.7655 33.0642 32.7571C33.4483 32.7571 33.7971 32.8766 34.1304 33.0999L34.5554 32.4308C34.1131 32.1045 33.7047 31.977 33.0924 31.977C31.7807 31.977 30.9213 32.8209 30.9213 33.9758ZM42.3301 31.977C41.8196 31.977 41.487 32.2003 41.257 32.5347V32.0732H40.3803V35.8793H41.2663V33.7458C41.2663 33.1159 41.5557 32.7659 42.1341 32.7659C42.3236 32.7634 42.5115 32.7959 42.6874 32.8617L42.9603 32.0816C42.7642 32.0094 42.5088 31.9777 42.3297 31.9777M18.6083 32.3759C18.1825 32.1133 17.5958 31.9777 16.9486 31.9777C15.9176 31.9777 15.2538 32.4399 15.2538 33.1961C15.2538 33.8167 15.748 34.1996 16.658 34.319L17.0761 34.3747C17.5614 34.4385 17.7905 34.5579 17.7905 34.7729C17.7905 35.0672 17.4681 35.2351 16.8628 35.2351C16.2499 35.2351 15.8075 35.0519 15.5092 34.8369L15.0934 35.4823C15.5786 35.8167 16.1916 35.9762 16.8554 35.9762C18.0308 35.9762 18.7119 35.4586 18.7119 34.7339C18.7119 34.0649 18.1758 33.7149 17.2901 33.5955L16.873 33.5389C16.4899 33.4925 16.1829 33.4204 16.1829 33.1653C16.1829 32.887 16.4723 32.7195 16.9578 32.7195C17.4773 32.7195 17.9802 32.9028 18.2267 33.0459L18.6098 32.3768L18.6083 32.3759ZM30.0273 31.9784C29.5167 31.9784 29.1842 32.2017 28.9554 32.5361V32.0732H28.0783V35.8793H28.9633V33.7458C28.9633 33.1159 29.2527 32.7659 29.8312 32.7659C30.0206 32.7634 30.2087 32.7959 30.3847 32.8617L30.6574 32.0816C30.4615 32.0094 30.2061 31.9777 30.0268 31.9777M22.4753 32.0732H21.0282V30.9186H20.1335V32.0732H19.308V32.8297H20.1335V34.566C20.1335 35.4491 20.5 35.9751 21.5469 35.9751C21.931 35.9751 22.3734 35.8638 22.6541 35.6808L22.3984 34.9721C22.1343 35.1152 21.845 35.1873 21.6148 35.1873C21.1725 35.1873 21.0282 34.9322 21.0282 34.5503V32.8304H22.4753V32.0732ZM9.2441 35.8802V33.4916C9.2441 32.592 8.6311 31.9867 7.64299 31.9786C7.12349 31.9705 6.58762 32.1217 6.21247 32.6558C5.93175 32.2337 5.48938 31.9786 4.86751 31.9786C4.43282 31.9786 4.00805 32.098 3.67552 32.5437V32.0732H2.78979V35.8793H3.68247V33.7689C3.68247 33.1082 4.07425 32.7571 4.67928 32.7571C5.26696 32.7571 5.56428 33.1154 5.56428 33.7606V35.8788H6.45893V33.7685C6.45893 33.1078 6.86734 32.7566 7.45476 32.7566C8.05908 32.7566 8.34744 33.115 8.34744 33.7601V35.8784L9.2441 35.8802Z" fill="#231F20"/>
<path d="M49.3427 23.2194V22.6628H49.1876L49.0081 23.0448L48.8299 22.6628H48.6744V23.2194H48.7847V22.8001L48.9522 23.1619H49.0664L49.2339 22.7992V23.2194H49.3431H49.3427ZM48.3595 23.2194V22.7582H48.5578V22.6642H48.0508V22.7582H48.2491V23.2194H48.3583H48.3595Z" fill="#F79410"/>
<path d="M31.7276 25.6063H18.3162V3.0647H31.7279L31.7276 25.6063Z" fill="#FF5F00"/>
<path d="M19.1665 14.336C19.1665 9.7634 21.4557 5.69015 25.0205 3.06517C22.3222 1.07526 18.9847 -0.004733 15.5484 1.55925e-05C7.08363 1.55925e-05 0.221924 6.41835 0.221924 14.336C0.221924 22.2536 7.08363 28.672 15.5484 28.672C18.9848 28.6768 22.3223 27.5968 25.0207 25.6068C21.4562 22.9823 19.1665 18.9088 19.1665 14.336Z" fill="#EB001B"/>
<path d="M49.8212 14.3361C49.8212 22.2538 42.9596 28.6721 34.4947 28.6721C31.058 28.6768 27.7201 27.5968 25.0212 25.6069C28.587 22.9819 30.8762 18.9089 30.8762 14.3361C30.8762 9.76329 28.587 5.69029 25.0212 3.06529C27.7201 1.07544 31.0579 -0.00452768 34.4945 0.000137119C42.9592 0.000137119 49.8212 6.41846 49.8212 14.3361Z" fill="#F79E1B"/>
</g>
<defs>
<clipPath id="clip0_46_601">
<rect width="49.7779" height="36.089" fill="white" transform="translate(0.221924)"/>
</clipPath>
</defs>
</svg>
